# xmcd
#
# Track frame offsets:
# 150
# 18049
# 35531
# 48653
# 61182
# 82783
# 98033
# 114536
# 125758
# 142905
# 161628
# 177877
# 190251
# 207702
# 226905
# 244500
# 258811
# 275328
# 291925
# 303600
# 318617
# 337193
#
# Disc length: 4709 seconds
#
#
# Revision: 1
# Processed by: cddbd v1.5.2PL0 Copyright (c) Steve Scherf et al.
# Submitted via: FreeRIP 2.951 
#
DISCID=3b126316
DTITLE=ALO TCHE - ALO TCHE
DYEAR=1900
DGENRE=gaucho
TTITLE0=DO TAMANHO DO BRASIL
TTITLE1=QUERENCIA AMADA
TTITLE2=SEM PAIA E SEM FUMO
TTITLE3=ARRRASTA PÉ
TTITLE4=UM BAGUAL CORCOVEADOR
TTITLE5=SEGURA O TCHE
TTITLE6=OS GINETES DO BRASIL
TTITLE7=XEC XEC
TTITLE8=MORENA BRASILEIRA
TTITLE9=CASTELHANA
TTITLE10=BALANCA BRASIL
TTITLE11=EU TAMBEM JA
TTITLE12=BATE COXA DO TOTONHO
TTITLE13=E ISSO QUE O VELHO GOSTA
TTITLE14=ARREDA O CAVALO TCHE
TTITLE15=FESTA LEGAL
TTITLE16=REQUEBRA MARVADA
TTITLE17=YAHOO
TTITLE18=SAPINHO NA BOCA
TTITLE19=TEMPORAL
TTITLE20=VIDA DE GAUCHO
TTITLE21=MATA A PAU
EXTD=
EXTT0=
EXTT1=
EXTT2=
EXTT3=
EXTT4=
EXTT5=
EXTT6=
EXTT7=
EXTT8=
EXTT9=
EXTT10=
EXTT11=
EXTT12=
EXTT13=
EXTT14=
EXTT15=
EXTT16=
EXTT17=
EXTT18=
EXTT19=
EXTT20=
EXTT21=
PLAYORDER=
